<?xml version="1.0" encoding="utf-8"?>
<!-- Generator: Adobe Illustrator 25.4.1, SVG Export Plug-In . SVG Version: 6.00 Build 0)  -->
<svg version="1.1" id="Слой_1" xmlns="http://www.w3.org/2000/svg" xmlns:xlink="http://www.w3.org/1999/xlink" x="0px" y="0px"
	 viewBox="0 0 595.28 194.87" style="enable-background:new 0 0 595.28 194.87;" xml:space="preserve">
<style type="text/css">
	.st0{fill:#FFFFFF;}
	.st1{fill:#7FBB48;}
	.st2{fill:#9FC657;}
	.st3{fill:#B9D382;}
</style>
<g>
	<path class="st0" d="M162.58,151.93h-2.29v-1.3c-1.95-0.15-3.48-0.7-4.57-1.62c-1.1-0.91-1.65-2.12-1.65-3.61
		c0-1.48,0.55-2.68,1.65-3.6c1.1-0.91,2.62-1.46,4.57-1.62v-1.33h2.29v1.31c1.94,0.15,3.45,0.7,4.56,1.63
		c1.1,0.93,1.66,2.13,1.66,3.61c0,1.49-0.55,2.7-1.66,3.61c-1.1,0.91-2.62,1.46-4.56,1.62V151.93z M157.43,143.27
		c-0.67,0.56-1.01,1.28-1.01,2.13s0.34,1.57,1.01,2.13s1.62,0.91,2.87,1.04v-6.36C159.06,142.36,158.1,142.71,157.43,143.27z
		 M166.46,145.41c0-0.87-0.34-1.57-1.01-2.13s-1.62-0.91-2.87-1.04v6.36c1.23-0.14,2.2-0.47,2.87-1.04S166.46,146.28,166.46,145.41z
		"/>
	<path class="st0" d="M181.92,150.26c-1.25,1.28-2.85,1.91-4.8,1.91s-3.55-0.64-4.8-1.91c-1.25-1.28-1.88-2.9-1.88-4.85
		c0-1.97,0.63-3.58,1.88-4.85c1.25-1.28,2.85-1.91,4.8-1.91s3.55,0.64,4.8,1.91c1.25,1.28,1.88,2.9,1.88,4.85
		C183.79,147.36,183.17,148.98,181.92,150.26z M177.11,150.13c1.3,0,2.33-0.44,3.14-1.34c0.79-0.9,1.19-2.03,1.19-3.38
		c0-1.37-0.4-2.5-1.19-3.38c-0.79-0.88-1.84-1.33-3.14-1.33c-1.31,0-2.35,0.44-3.14,1.33c-0.79,0.88-1.19,2.01-1.19,3.38
		c0,1.37,0.4,2.5,1.19,3.38C174.77,149.68,175.8,150.13,177.11,150.13z"/>
	<path class="st0" d="M197.4,151.93h-2.29v-5.7h-6.8v5.7h-2.29v-13.07h2.29v5.35h6.8v-5.35h2.29V151.93z"/>
	<path class="st0" d="M199.34,154.34v-4.21c0.52-0.05,0.93-0.18,1.22-0.4c0.29-0.21,0.55-0.64,0.79-1.3
		c0.24-0.66,0.43-1.6,0.58-2.87l0.76-6.72h8.87v11.05h1.22v4.44h-2.29v-2.41h-8.86v2.41L199.34,154.34L199.34,154.34z M204.2,145.74
		c-0.23,1.94-0.79,3.32-1.72,4.18h6.8v-9.04h-4.53L204.2,145.74z"/>
	<path class="st0" d="M230.94,151.93h-2.29v-5.7h-6.8v5.7h-2.29v-13.07h2.29v5.35h6.8v-5.35h2.29V151.93z"/>
	<path class="st0" d="M244.63,150.26c-1.25,1.28-2.85,1.91-4.8,1.91s-3.55-0.64-4.8-1.91c-1.25-1.28-1.88-2.9-1.88-4.85
		c0-1.97,0.63-3.58,1.88-4.85c1.25-1.28,2.85-1.91,4.8-1.91s3.55,0.64,4.8,1.91c1.25,1.28,1.88,2.9,1.88,4.85
		S245.88,148.98,244.63,150.26z M239.83,150.13c1.3,0,2.33-0.44,3.14-1.34c0.79-0.9,1.19-2.03,1.19-3.38c0-1.37-0.4-2.5-1.19-3.38
		c-0.79-0.88-1.84-1.33-3.14-1.33c-1.31,0-2.36,0.44-3.14,1.33c-0.79,0.88-1.19,2.01-1.19,3.38c0,1.37,0.4,2.5,1.19,3.38
		C237.48,149.68,238.52,150.13,239.83,150.13z"/>
	<path class="st0" d="M255.34,151.93h-6.6v-13.07h6.43c1.16,0,2.07,0.32,2.73,0.95c0.66,0.64,0.99,1.43,0.99,2.38
		c0,0.78-0.21,1.45-0.66,1.98c-0.44,0.55-0.98,0.88-1.62,1.01c0.7,0.11,1.3,0.47,1.8,1.08c0.49,0.63,0.73,1.33,0.73,2.12
		c0,1.05-0.34,1.89-1.01,2.55C257.46,151.6,256.53,151.93,255.34,151.93z M254.68,144.26c0.58,0,1.02-0.15,1.36-0.47
		c0.32-0.32,0.49-0.72,0.49-1.22s-0.17-0.91-0.49-1.23c-0.32-0.32-0.78-0.47-1.36-0.47h-3.66v3.38L254.68,144.26L254.68,144.26z
		 M254.79,149.92c0.63,0,1.11-0.17,1.46-0.49c0.35-0.32,0.53-0.76,0.53-1.34c0-0.5-0.18-0.93-0.53-1.28s-0.84-0.52-1.46-0.52h-3.77
		v3.63H254.79z"/>
	<path class="st0" d="M261.43,138.85h2.29v4.88h3.45c1.33,0,2.36,0.4,3.13,1.19s1.14,1.75,1.14,2.91s-0.38,2.13-1.14,2.93
		c-0.76,0.78-1.8,1.17-3.13,1.17h-5.75L261.43,138.85L261.43,138.85z M266.86,145.76h-3.14v4.16h3.14c0.66,0,1.19-0.18,1.6-0.56
		s0.63-0.88,0.63-1.51s-0.21-1.13-0.63-1.51C268.05,145.94,267.52,145.76,266.86,145.76z M274.96,151.93h-2.29v-13.07h2.29V151.93z"
		/>
	<path class="st0" d="M289.23,151.93h-2.74l-3.66-5.12l-3.66,5.12h-2.74l4.89-6.71l-4.6-6.37h2.74l3.37,4.8l3.35-4.8h2.76
		l-4.59,6.36L289.23,151.93z"/>
	<path class="st0" d="M301.13,151.93h-2.29v-11.05h-3.96v-2.01h10.21v2.01h-3.96V151.93z"/>
	<path class="st0" d="M316,151.93h-8.95v-13.07H316v2.01h-6.66v3.38h6.52v2.01h-6.52v3.63H316V151.93z"/>
	<path class="st0" d="M329.83,151.93h-2.74l-3.66-5.12l-3.66,5.12h-2.74l4.89-6.71l-4.6-6.37h2.74l3.37,4.8l3.35-4.8h2.76
		l-4.59,6.36L329.83,151.93z"/>
	<path class="st0" d="M342.69,151.93h-2.29v-5.7h-6.8v5.7h-2.29v-13.07h2.29v5.35h6.8v-5.35h2.29V151.93z"/>
	<path class="st0" d="M356.37,150.26c-1.25,1.28-2.85,1.91-4.8,1.91s-3.55-0.64-4.8-1.91c-1.25-1.28-1.88-2.9-1.88-4.85
		c0-1.97,0.63-3.58,1.88-4.85c1.25-1.28,2.85-1.91,4.8-1.91s3.55,0.64,4.8,1.91c1.25,1.28,1.88,2.9,1.88,4.85
		C358.24,147.36,357.62,148.98,356.37,150.26z M351.56,150.13c1.3,0,2.33-0.44,3.14-1.34c0.79-0.9,1.19-2.03,1.19-3.38
		c0-1.37-0.4-2.5-1.19-3.38s-1.84-1.33-3.14-1.33c-1.31,0-2.35,0.44-3.14,1.33c-0.79,0.88-1.19,2.01-1.19,3.38
		c0,1.37,0.4,2.5,1.19,3.38C349.2,149.69,350.25,150.13,351.56,150.13z"/>
	<path class="st0" d="M358.93,152.16v-2.04c0.76,0,1.33-0.29,1.71-0.88c0.38-0.59,0.67-1.81,0.88-3.66l0.76-6.72h8.87v13.07h-2.29
		v-11.05h-4.53l-0.55,4.86c-0.15,1.34-0.38,2.45-0.66,3.34c-0.27,0.87-0.64,1.52-1.08,1.97c-0.44,0.44-0.9,0.73-1.37,0.9
		C360.21,152.09,359.63,152.16,358.93,152.16z"/>
	<path class="st0" d="M384.85,150.26c-1.25,1.28-2.85,1.91-4.8,1.91c-1.95,0-3.55-0.64-4.8-1.91c-1.25-1.28-1.88-2.9-1.88-4.85
		c0-1.97,0.63-3.58,1.88-4.85c1.25-1.28,2.85-1.91,4.8-1.91c1.95,0,3.55,0.64,4.8,1.91c1.25,1.28,1.88,2.9,1.88,4.85
		C386.72,147.36,386.1,148.98,384.85,150.26z M380.04,150.13c1.3,0,2.33-0.44,3.14-1.34c0.79-0.9,1.19-2.03,1.19-3.38
		c0-1.37-0.4-2.5-1.19-3.38s-1.84-1.33-3.14-1.33c-1.31,0-2.35,0.44-3.14,1.33c-0.79,0.88-1.19,2.01-1.19,3.38
		c0,1.37,0.4,2.5,1.19,3.38C377.68,149.69,378.73,150.13,380.04,150.13z"/>
	<path class="st0" d="M391.23,151.93h-2.29v-13.07h8.95v2.01h-6.66V151.93z"/>
	<path class="st0" d="M402.16,151.93h-2.21v-13.07h2.29v9.07l6.68-9.07h2.35v13.07h-2.29v-9.33L402.16,151.93z"/>
	<path class="st0" d="M416.28,151.93h-2.21v-13.07h2.29v9.07l6.68-9.07h2.35v13.07h-2.29v-9.33L416.28,151.93z M423.16,136.47
		c-0.85,1.14-2,1.72-3.43,1.72c-1.42,0-2.58-0.58-3.45-1.72l0.95-0.78c0.63,0.87,1.46,1.3,2.52,1.3c1.05,0,1.88-0.43,2.48-1.3
		L423.16,136.47z"/>
	<path class="st0" d="M439.82,151.93h-6.6v-13.07h6.43c1.16,0,2.07,0.32,2.73,0.95c0.66,0.64,0.99,1.43,0.99,2.38
		c0,0.78-0.21,1.45-0.66,1.98c-0.44,0.55-0.98,0.88-1.62,1.01c0.7,0.11,1.3,0.47,1.8,1.08c0.49,0.63,0.73,1.33,0.73,2.12
		c0,1.05-0.34,1.89-1.01,2.55C441.94,151.6,441.01,151.93,439.82,151.93z M439.16,144.26c0.58,0,1.02-0.15,1.36-0.47
		c0.32-0.32,0.49-0.72,0.49-1.22s-0.17-0.91-0.49-1.23c-0.32-0.32-0.78-0.47-1.36-0.47h-3.66v3.38L439.16,144.26L439.16,144.26z
		 M439.27,149.92c0.63,0,1.11-0.17,1.46-0.49s0.53-0.76,0.53-1.34c0-0.5-0.18-0.93-0.53-1.28s-0.84-0.52-1.46-0.52h-3.77v3.63
		H439.27z"/>
	<path class="st0" d="M461.85,150.26c-1.25,1.28-2.85,1.91-4.8,1.91s-3.55-0.64-4.8-1.91c-1.25-1.28-1.88-2.9-1.88-4.85
		c0-1.97,0.63-3.58,1.88-4.85c1.25-1.28,2.85-1.91,4.8-1.91s3.55,0.64,4.8,1.91c1.25,1.28,1.88,2.9,1.88,4.85
		C463.72,147.36,463.1,148.98,461.85,150.26z M457.05,150.13c1.3,0,2.33-0.44,3.14-1.34c0.79-0.9,1.19-2.03,1.19-3.38
		c0-1.37-0.4-2.5-1.19-3.38s-1.84-1.33-3.14-1.33c-1.31,0-2.35,0.44-3.14,1.33c-0.79,0.88-1.19,2.01-1.19,3.38
		c0,1.37,0.4,2.5,1.19,3.38C454.68,149.69,455.74,150.13,457.05,150.13z"/>
	<path class="st0" d="M465.93,138.85h8.95v2.01h-6.66v2.87h3.45c1.33,0,2.36,0.4,3.13,1.19s1.14,1.75,1.14,2.91
		s-0.38,2.13-1.14,2.93c-0.76,0.78-1.8,1.17-3.13,1.17h-5.75L465.93,138.85L465.93,138.85L465.93,138.85z M471.36,145.76h-3.14v4.16
		h3.14c0.66,0,1.19-0.18,1.6-0.56s0.63-0.88,0.63-1.51s-0.21-1.13-0.63-1.51C472.55,145.94,472.02,145.76,471.36,145.76z"/>
	<path class="st0" d="M480.14,151.93h-2.29v-13.07h5.75c1.33,0,2.36,0.4,3.13,1.17c0.76,0.78,1.14,1.75,1.14,2.93
		c0,1.14-0.38,2.12-1.14,2.91c-0.76,0.79-1.8,1.19-3.13,1.19h-3.45v4.86h-0.01L480.14,151.93L480.14,151.93z M483.28,145.03
		c0.66,0,1.19-0.18,1.6-0.56s0.63-0.88,0.63-1.51c0-0.63-0.21-1.13-0.63-1.51c-0.41-0.38-0.96-0.56-1.6-0.56h-3.14v4.16h3.14V145.03
		z"/>
	<path class="st0" d="M500.07,151.93h-2.61l-0.96-2.52h-5.99l-0.96,2.52h-2.61l5.14-13.07h2.87L500.07,151.93z M495.85,147.4
		l-2.35-6.24l-2.35,6.24H495.85z"/>
	<path class="st0" d="M505.56,152.16c-1.13,0-2.15-0.2-3.08-0.59c-0.93-0.4-1.63-0.9-2.09-1.52l1.23-1.51
		c0.41,0.49,0.99,0.87,1.71,1.16c0.72,0.29,1.43,0.43,2.15,0.43c0.93,0,1.66-0.18,2.18-0.53c0.53-0.37,0.79-0.84,0.79-1.46
		c0-1.23-1.05-1.84-3.16-1.84h-2.62v-2.01h2.62c0.87,0,1.59-0.14,2.13-0.43c0.55-0.29,0.81-0.72,0.81-1.3
		c0-0.59-0.27-1.04-0.82-1.36c-0.55-0.32-1.23-0.49-2.07-0.49c-1.43,0-2.64,0.49-3.6,1.45l-1.17-1.43c0.52-0.61,1.22-1.11,2.1-1.49
		s1.84-0.56,2.9-0.56c1.45,0,2.64,0.32,3.58,0.96c0.93,0.64,1.4,1.49,1.4,2.56c0,0.81-0.29,1.48-0.85,2.01s-1.23,0.85-2,0.99
		c0.75,0.06,1.43,0.38,2.07,0.95c0.64,0.56,0.96,1.31,0.96,2.24c0,1.11-0.49,2.03-1.46,2.73
		C508.29,151.81,507.05,152.16,505.56,152.16z"/>
	<path class="st0" d="M523.92,150.26c-1.25,1.28-2.85,1.91-4.8,1.91s-3.55-0.64-4.8-1.91c-1.25-1.28-1.88-2.9-1.88-4.85
		c0-1.97,0.63-3.58,1.88-4.85c1.25-1.28,2.85-1.91,4.8-1.91s3.55,0.64,4.8,1.91c1.25,1.28,1.88,2.9,1.88,4.85
		C525.82,147.36,525.18,148.98,523.92,150.26z M519.12,150.13c1.3,0,2.33-0.44,3.14-1.34c0.79-0.9,1.19-2.03,1.19-3.38
		c0-1.37-0.4-2.5-1.19-3.38s-1.84-1.33-3.14-1.33c-1.31,0-2.35,0.44-3.14,1.33c-0.79,0.88-1.19,2.01-1.19,3.38
		c0,1.37,0.4,2.5,1.19,3.38C516.78,149.69,517.83,150.13,519.12,150.13z"/>
	<path class="st0" d="M534.62,151.93h-6.6v-13.07h6.43c1.16,0,2.07,0.32,2.73,0.95c0.66,0.64,0.99,1.43,0.99,2.38
		c0,0.78-0.21,1.45-0.66,1.98c-0.44,0.55-0.98,0.88-1.62,1.01c0.7,0.11,1.3,0.47,1.8,1.08c0.49,0.63,0.73,1.33,0.73,2.12
		c0,1.05-0.34,1.89-1.01,2.55C536.74,151.6,535.82,151.93,534.62,151.93z M533.98,144.26c0.58,0,1.02-0.15,1.36-0.47
		c0.32-0.32,0.49-0.72,0.49-1.22s-0.17-0.91-0.49-1.23c-0.32-0.32-0.78-0.47-1.36-0.47h-3.66v3.38L533.98,144.26L533.98,144.26z
		 M534.08,149.92c0.63,0,1.11-0.17,1.46-0.49s0.53-0.76,0.53-1.34c0-0.5-0.18-0.93-0.53-1.28s-0.84-0.52-1.46-0.52h-3.77v3.63
		H534.08z"/>
	<path class="st0" d="M552.47,151.93h-2.61l-0.96-2.52h-5.99l-0.96,2.52h-2.61l5.14-13.07h2.87L552.47,151.93z M548.27,147.4
		l-2.35-6.24l-2.35,6.24H548.27z"/>
	<path class="st0" d="M565.29,151.93h-2.29v-5.7h-6.8v5.7h-2.29v-13.07h2.29v5.35h6.8v-5.35h2.29V151.93z"/>
	<path class="st0" d="M570.29,151.93h-2.21v-13.07h2.29v9.07l6.68-9.07h2.35v13.07h-2.29v-9.33L570.29,151.93z"/>
	<path class="st0" d="M584.41,151.93h-2.21v-13.07h2.29v9.07l6.68-9.07h2.35v13.07h-2.29v-9.33L584.41,151.93z"/>
</g>
<g>
	<polygon class="st1" points="328.67,68.78 348.42,50.29 332.84,52.02 	"/>
	<polygon class="st2" points="332.84,52.02 327.19,36.08 328.67,68.78 	"/>
	<polygon class="st3" points="348.42,50.29 332.84,52.02 327.19,36.08 	"/>
</g>
<path class="st1" d="M343.13,78.82c-2.77,6.43-5.56,12.87-8.34,19.29c-3.92,9.09-7.87,18.17-11.74,27.29
	c-0.53,1.25-1.14,1.78-2.59,1.75c-6.78-0.09-13.57-0.05-20.35-0.05c-0.61,0-1.22,0-1.97,0c0-22.88,0-45.6,0-68.45
	c7.97,0,15.9,0,24.03,0c0,16.02,0,32.06,0,48.11c0.14,0.05,0.29,0.09,0.43,0.14c0.29-0.63,0.61-1.23,0.87-1.88
	c6.46-14.96,12.93-29.93,19.35-44.9c0.52-1.2,1.1-1.68,2.45-1.66c6.85,0.08,13.69,0.03,20.54,0.03c0.61,0,1.22,0,1.94,0
	c0,22.91,0,45.61,0,68.45c-7.99,0-15.93,0-24.1,0c0-16.04,0-32.08,0-48.11C343.5,78.85,343.32,78.83,343.13,78.82z"/>
<path class="st1" d="M517.16,58.52c0,22.96,0,45.61,0,68.44c-7.97,0-15.9,0-24.06,0c0-16.05,0-32.14,0-48.21
	c-0.14-0.03-0.27-0.06-0.43-0.09c-0.26,0.53-0.52,1.05-0.75,1.59c-6.49,15.02-13,30.03-19.44,45.07c-0.58,1.36-1.22,1.88-2.74,1.84
	c-7.33-0.09-14.68-0.05-22.18-0.05c0-22.87,0-45.61,0-68.48c7.94,0,15.89,0,23.95,0c0,16.18,0,32.3,0,48.42
	c0.12,0.05,0.24,0.09,0.37,0.14c0.24-0.5,0.52-0.99,0.75-1.49c6.51-15.08,13.02-30.16,19.48-45.25c0.59-1.37,1.25-1.98,2.87-1.95
	c6.72,0.11,13.43,0.05,20.15,0.05C515.76,58.52,516.36,58.52,517.16,58.52z"/>
<path class="st1" d="M152.07,127.11c0-22.96,0-45.66,0-68.48c18.13,0,36.18,0,54.46,0c0.59,2.52,1.2,5.11,1.86,7.93
	c-10.81,0-21.39,0-32.09,0c0,2.16,0,4.13,0,6.04c3.95,0.49,7.9,0.72,11.74,1.49c8.55,1.71,16.31,5.12,21.95,12.1
	c11.75,14.57,3.99,36.36-14.32,40.2c-2.2,0.46-4.47,0.69-6.71,0.7c-11.56,0.06-23.1,0.03-34.65,0.03
	C153.62,127.11,152.95,127.11,152.07,127.11z M176.27,118.87c6.08,0.82,10.15-1.98,10.63-7.73c0.44-5.37,0.4-10.78,0.34-16.16
	c-0.05-3.6-0.87-7.1-2.91-10.17c-1.89-2.82-4.51-4.18-8.03-3.93C176.27,93.6,176.27,106.18,176.27,118.87z"/>
<path class="st1" d="M594.92,127.11c-8.72,0-17.07,0.03-25.43-0.06c-0.61,0-1.49-0.79-1.78-1.42c-3.05-6.4-6.01-12.84-8.98-19.25
	c-0.17-0.37-0.38-0.73-0.98-1.04c0,7.21,0,14.44,0,21.71c-8.19,0-16.08,0-24.12,0c0-22.78,0-45.48,0-68.34c7.9,0,15.84,0,24.06,0
	c0,6.8,0,13.64,0,21.08c3.23-2.99,6.02-5.55,8.8-8.13c4.33-4.01,8.61-8.06,12.99-12.03c0.66-0.59,1.72-1.02,2.61-1.07
	c3.38-0.12,6.77-0.05,10.75-0.05c-6.97,6.69-13.57,13.05-20.18,19.42C580.04,94.31,587.41,110.56,594.92,127.11z"/>
<path class="st1" d="M219.27,127.11c2.67-5.76,5.15-11.16,7.65-16.56C234.7,93.7,242.49,76.86,250.21,60
	c0.53-1.16,1.17-1.39,2.38-1.54c3.43-0.44,5.18,0.76,6.75,4.04c10.06,21.11,20.43,42.08,30.69,63.08c0.18,0.4,0.35,0.79,0.61,1.36
	c-0.56,0.06-1.02,0.15-1.48,0.15c-8.03,0.02-16.08-0.02-24.12,0.03c-1.19,0.02-1.8-0.38-2.26-1.45c-1.11-2.59-2.29-5.15-3.58-7.67
	c-0.29-0.56-1.19-1.16-1.8-1.16c-7.85-0.08-15.7-0.08-23.55,0.02c-0.64,0-1.56,0.72-1.86,1.34c-1.25,2.53-2.27,5.17-3.48,7.71
	c-0.24,0.5-0.9,1.11-1.39,1.13C224.63,127.17,222.13,127.11,219.27,127.11z M255.32,110.11c-3.37-7.07-6.6-13.87-9.99-21.01
	c-3.31,7.2-6.45,14.01-9.68,21.01C242.35,110.11,248.66,110.11,255.32,110.11z"/>
<path class="st1" d="M420.72,127.02c-8.16,0-16.1,0-24.3,0c0-20.11,0-40.17,0-60.4c-6.07,0-11.88,0-17.84,0c0-2.71,0-5.24,0-7.94
	c20.02,0,40.06,0,60.26,0c0,2.52,0,5.05,0,7.84c-5.98,0-11.95,0-18.14,0C420.72,86.8,420.72,106.87,420.72,127.02z"/>
<g>
	<g>
		<path class="st1" d="M59.16,35.93c20.99,0,41.97,0,62.96,0c0,0.17,0.02,0.34,0.02,0.5c0,20.08,0,40.16,0,60.23
			c0,2.79-0.18,5.58-0.55,8.35c-0.53,3.96-1.45,7.85-2.76,11.63c-5.32,15.35-16.5,27.91-31.16,34.97
			c-7.21,3.48-14.83,5.43-22.82,5.88c-0.14,0.02-0.26,0.05-0.4,0.08c-2.04,0-4.07,0-6.11,0c-0.15-0.03-0.3-0.06-0.46-0.08
			c-2.44-0.12-4.85-0.41-7.26-0.84c-5.88-1.04-11.49-2.91-16.82-5.63c-15.12-7.7-26.28-21.21-30.98-37.47
			c-1.17-4.09-1.92-8.26-2.2-12.5c-0.08-1.07-0.12-2.12-0.18-3.19c0-0.11-0.05-0.2-0.08-0.3c0-0.52,0-1.05,0-1.57
			c0.03-0.15,0.08-0.29,0.08-0.44c0.15-2.01,0.26-4.02,0.47-6.04c0.35-3.37,1.05-6.66,2.01-9.91c3-10.15,8.29-18.95,15.86-26.34
			c7.91-7.73,17.26-12.91,27.99-15.6c3.92-0.98,7.9-1.52,11.94-1.69C58.86,35.99,59.01,35.96,59.16,35.93z M21.93,136.38
			c-0.02-0.03,0,0,0.02,0.03c0.03,0.03,0.06,0.08,0.09,0.11c7.18,6.98,15.66,11.63,25.4,13.93c4.15,0.98,8.34,1.51,12.59,1.71
			c4.13,0.18,8.23-0.02,12.3-0.76c5.2-0.96,10.14-2.67,14.86-5.03c0.12-0.06,0.23-0.14,0.37-0.23c-7.3-7.3-14.56-14.56-21.86-21.86
			c4.74-4.7,9.47-9.39,14.21-14.09c-1.4-1.45-2.77-2.85-4.12-4.24c-2.32,1.39-4.67,0.63-5.84-0.93c-1.23-1.63-1.13-3.95,0.26-5.46
			c1.42-1.54,3.7-1.83,5.44-0.69c0.85,0.56,1.45,1.33,1.75,2.32c0.4,1.28,0.18,2.5-0.49,3.58c1.77,1.83,3.49,3.61,5.26,5.44
			c-4.7,4.68-9.41,9.41-14.07,14.06c7.04,7.04,14.04,14.04,21.07,21.07c9.39-5.27,16.95-12.56,22.7-21.8
			C99,110.66,86.14,97.8,73.34,84.96c-5.99,5.96-11.91,11.86-17.79,17.73c1.95,1.95,3.92,3.92,5.88,5.88
			c2.55-1.37,4.76-0.17,5.73,1.22c1.16,1.68,0.96,3.99-0.47,5.44c-1.45,1.45-3.75,1.66-5.43,0.49c-0.84-0.58-1.42-1.37-1.68-2.36
			c-0.34-1.3-0.12-2.5,0.56-3.52c-1.98-1.98-3.93-3.93-5.84-5.84c-6.14,6.13-12.35,12.3-18.57,18.52c1.94,1.95,3.87,3.92,5.79,5.85
			c2.33-1.42,4.62-0.61,5.78,0.84c1.28,1.59,1.23,3.87-0.08,5.41c-1.34,1.57-3.6,1.97-5.38,0.91c-0.88-0.52-1.51-1.27-1.86-2.23
			c-0.47-1.36-0.29-2.64,0.41-3.77c-1.98-1.98-3.92-3.92-5.79-5.79C30.38,127.94,26.15,132.16,21.93,136.38z M121.04,37.09
			c-7.85,7.81-15.66,15.58-23.4,23.29c2.06,2.06,4.04,4.04,6.04,6.04c2.26-1.3,4.53-0.44,5.64,1.04c1.23,1.62,1.14,3.9-0.2,5.41
			c-1.36,1.52-3.61,1.88-5.37,0.82c-0.87-0.52-1.48-1.25-1.81-2.21c-0.49-1.37-0.27-2.67,0.44-3.8c-2.01-2.01-3.98-3.98-5.9-5.9
			c-2.91,2.91-5.87,5.85-8.8,8.77c4.57,4.57,9.18,9.18,13.8,13.8c1.56-0.93,3.17-0.91,4.79,0.08c1.27-1.27,2.53-2.53,3.8-3.8
			c1.27-1.27,2.55-2.55,3.83-3.83c2.26,2.26,4.47,4.47,6.71,6.71C120.9,82.05,121.3,39.01,121.04,37.09z M74.48,83.73
			c12.75,12.75,25.51,25.51,38.27,38.27c0.05-0.08,0.14-0.21,0.2-0.34c3.54-6.31,5.88-13.02,6.88-20.2
			c0.05-0.32-0.03-0.52-0.24-0.73c-1.65-1.65-3.29-3.29-4.95-4.94c-0.11-0.11-0.21-0.21-0.35-0.34c-2.91,2.91-5.81,5.81-8.77,8.77
			C96.88,95.59,88.29,87,79.74,78.45C77.99,80.23,76.2,82,74.48,83.73z M105.63,101.88c2.88-2.88,5.76-5.76,8.67-8.69
			c0.49,0.49,0.98,0.98,1.45,1.45c0.47,0.47,0.95,0.95,1.4,1.4c0.47,0.47,0.96,0.96,1.43,1.43s0.95,0.95,1.51,1.49
			c0.05-0.75,0.12-1.37,0.14-2.01c0.12-3.58,0.23-7.15,0.37-10.73c0.02-0.32-0.09-0.55-0.3-0.76c-2.03-2.01-4.04-4.04-6.05-6.05
			c-0.11-0.11-0.21-0.21-0.3-0.29c-2.18,2.18-4.33,4.33-6.52,6.52c0.55,0.85,0.75,1.83,0.61,2.87c-0.15,1.07-0.64,1.95-1.46,2.65
			c-1.46,1.23-3.55,1.34-5.12,0.27c-0.79-0.53-1.36-1.27-1.65-2.16c-0.43-1.33-0.23-2.58,0.44-3.67C95.6,80.95,91,76.35,86.44,71.79
			c-1.8,1.8-3.63,3.63-5.43,5.43C89.16,85.42,97.37,93.62,105.63,101.88z"/>
		<path class="st1" d="M57.41,124.34c3.34,3.34,6.65,6.65,9.99,9.99c1.1-0.67,2.32-0.9,3.6-0.5c0.98,0.29,1.75,0.88,2.32,1.74
			c1.13,1.72,0.85,3.99-0.64,5.41s-3.81,1.56-5.49,0.3c-1.51-1.13-2.38-3.45-1.04-5.72c-3.34-3.34-6.66-6.66-10.02-10.02
			c-1.11,0.66-2.38,0.87-3.7,0.4c-0.98-0.34-1.72-0.96-2.24-1.84c-1.04-1.75-0.69-4.02,0.84-5.35c1.56-1.37,3.83-1.43,5.46-0.17
			C57.85,119.64,58.87,121.9,57.41,124.34z"/>
		<path class="st1" d="M79.74,123.79c2.36,0,4.25,1.91,4.24,4.28c-0.02,2.33-1.94,4.24-4.25,4.22c-2.33-0.02-4.24-1.92-4.25-4.25
			C75.46,125.7,77.38,123.79,79.74,123.79z"/>
	</g>
</g>
</svg>
